<svg width="22" height="23" viewBox="0 0 22 23" fill="none" xmlns="http://www.w3.org/2000/svg">
<path d="M22 2.11765V20.8824C22 21.3114 21.8296 21.7228 21.5262 22.0262C21.2228 22.3296 20.8114 22.5 20.3824 22.5H1.61765C1.18862 22.5 0.777166 22.3296 0.473798 22.0262C0.17043 21.7228 0 21.3114 0 20.8824L0 2.11765C0 1.68862 0.17043 1.27717 0.473798 0.973798C0.777166 0.67043 1.18862 0.5 1.61765 0.5L20.3824 0.5C20.8114 0.5 21.2228 0.67043 21.5262 0.973798C21.8296 1.27717 22 1.68862 22 2.11765ZM6.47059 8.91177H3.23529V19.2647H6.47059V8.91177ZM6.76177 5.35294C6.76347 5.10822 6.71696 4.86555 6.62488 4.63881C6.5328 4.41206 6.39696 4.20567 6.22511 4.03142C6.05327 3.85718 5.84879 3.71848 5.62334 3.62326C5.39789 3.52804 5.1559 3.47816 4.91118 3.47647H4.85294C4.35527 3.47647 3.87798 3.67417 3.52608 4.02608C3.17417 4.37798 2.97647 4.85527 2.97647 5.35294C2.97647 5.85061 3.17417 6.3279 3.52608 6.67981C3.87798 7.03171 4.35527 7.22941 4.85294 7.22941C5.09768 7.23543 5.34121 7.19317 5.56961 7.10504C5.79801 7.01691 6.00681 6.88464 6.18408 6.71579C6.36134 6.54694 6.5036 6.34481 6.60272 6.12096C6.70185 5.89711 6.75589 5.65592 6.76177 5.41118V5.35294ZM18.7647 12.9753C18.7647 9.86294 16.7847 8.65294 14.8176 8.65294C14.1736 8.62069 13.5323 8.75787 12.9578 9.05079C12.3834 9.34372 11.8957 9.78215 11.5435 10.3224H11.4529V8.91177H8.41177V19.2647H11.6471V13.7582C11.6003 13.1943 11.7779 12.6346 12.1414 12.2009C12.5049 11.7672 13.0248 11.4944 13.5882 11.4418H13.7112C14.74 11.4418 15.5035 12.0888 15.5035 13.7194V19.2647H18.7388L18.7647 12.9753Z" fill="white"/>
</svg>
