<svg width="627" height="603" viewBox="0 0 627 603" fill="none" xmlns="http://www.w3.org/2000/svg">
    <g clip-path="url(#clip0_5_5924)">
        <path opacity="0.1"
            d="M612.281 207.481C594.044 151.689 560.989 106.794 519.496 77.238C502.338 61.4515 483.329 47.696 462.877 36.4899C392.688 -2.01707 306.814 -10.3096 230.191 12.859C217.084 16.8232 204.243 21.6558 191.88 27.511C186.216 30.2005 180.875 33.3522 175.492 36.4058C163.044 43.4517 149.839 48.8026 137.672 56.5348C125.91 64.0008 114.738 72.3634 104.267 81.5244C80.6742 102.144 60.5723 126.643 44.5216 153.524C28.5971 180.194 16.5976 209.218 9.09793 239.362C1.58425 269.465 -1.42964 300.688 0.63102 331.63C2.77578 363.946 10.6259 395.799 23.8029 425.397C35.508 451.704 51.4745 476.371 72.0671 496.612C78.3472 502.789 84.3609 505.955 91.1457 510.97C101.014 518.254 111.29 525.006 121.901 531.183C128.181 534.839 134.574 538.285 141.064 541.549C159.372 558.442 179.754 572.085 201.328 582.059C257.007 607.819 319.752 608.533 379.455 591.178C394.23 586.877 408.823 581.456 423.192 575.055C424.692 574.382 425.182 572.253 425 570.054C438.654 565.544 452.111 559.842 465.232 553.007C517.954 525.524 566.4 479.103 597.17 418.183C612.73 387.381 623.328 352.838 626.187 317.469C629.271 279.424 623.468 241.701 612.295 207.495L612.281 207.481ZM241.447 585.392C217.575 579.579 194.445 569.55 173.137 555.654C178.366 557.643 183.637 559.52 188.95 561.257C226.588 573.598 266.343 579.593 305.944 578.557C328.163 582.913 350.97 583.754 373.736 581.274C329.775 593.531 284.581 595.926 241.433 585.406L241.447 585.392ZM609.267 368.554C588.633 433.914 544.602 487.577 495.735 522.064C457.494 549.057 414.907 565.628 372.124 570.292C376.736 569.284 381.306 568.205 385.819 567.042C407.8 561.397 429.135 553.259 449.321 542.879C489.469 522.232 525.145 492.732 552.27 456.62C556.994 450.331 561.466 443.845 565.657 437.192C580.418 413.785 591.815 388.305 599.623 361.775C605.286 342.57 609.057 322.806 610.879 302.873C613.038 279.144 612.421 255.149 608.847 231.574C608.048 226.279 606.66 222.441 604.613 217.636C600.086 207.019 597.899 195.182 593.595 184.382C588.703 172.14 582.969 160.233 576.437 148.775C574.727 145.763 572.961 142.78 571.138 139.838C577.474 148.649 583.348 158.006 588.647 167.909C603.884 196.345 614.776 229.193 618.996 263.693C623.271 298.67 620.019 334.488 609.253 368.568L609.267 368.554Z"
            fill="#F55A43" />
        <path opacity="0.1"
            d="M549.887 226.195C535.28 181.511 508.8 145.553 475.577 121.88C461.839 109.245 446.616 98.2214 430.242 89.2425C374.03 58.4118 305.257 51.7722 243.886 70.3182C233.401 73.484 223.111 77.3641 213.201 82.0566C208.659 84.1998 204.383 86.7352 200.066 89.1865C190.099 94.8316 179.529 99.1179 169.773 105.309C160.353 111.291 151.409 117.986 143.012 125.326C124.116 141.841 108.023 161.466 95.1686 182.996C82.4122 204.357 72.8098 227.596 66.7961 251.745C60.7963 275.838 58.3852 300.842 60.0253 325.621C61.7496 351.493 68.0297 377.015 78.5853 400.716C87.9633 421.783 100.748 441.534 117.233 457.755C122.266 462.7 127.074 465.235 132.513 469.255C140.419 475.096 148.648 480.489 157.142 485.434C162.175 488.362 167.292 491.121 172.492 493.727C187.155 507.258 203.472 518.184 220.756 526.168C265.348 546.801 315.603 547.376 363.418 533.466C375.25 530.034 386.941 525.692 398.449 520.551C399.655 520.019 400.048 518.31 399.893 516.545C410.827 512.931 421.607 508.365 432.107 502.888C474.329 480.868 513.131 443.705 537.775 394.917C550.237 370.249 558.718 342.584 561.017 314.247C563.484 283.78 558.844 253.566 549.887 226.167V226.195ZM252.9 528.858C233.779 524.193 215.261 516.167 198.201 505.031C202.379 506.628 206.598 508.126 210.86 509.527C240.999 519.403 272.834 524.207 304.556 523.381C322.345 526.869 340.611 527.541 358.848 525.552C323.649 535.371 287.454 537.276 252.9 528.858ZM547.475 355.205C530.948 407.552 495.679 450.527 456.554 478.15C425.925 499.764 391.819 513.043 357.559 516.769C361.246 515.957 364.918 515.102 368.535 514.164C386.142 509.653 403.23 503.126 419.392 494.805C451.55 478.276 480.119 454.645 501.847 425.72C505.632 420.677 509.206 415.48 512.57 410.157C524.388 391.415 533.513 371.006 539.766 349.756C544.293 334.376 547.321 318.547 548.779 302.579C550.503 283.57 550.013 264.352 547.153 245.484C546.508 241.239 545.401 238.172 543.761 234.319C540.13 225.817 538.392 216.334 534.929 207.677C531.018 197.872 526.42 188.332 521.192 179.157C519.818 176.748 518.402 174.353 516.944 172C522.019 179.059 526.715 186.553 530.962 194.482C543.172 217.258 551.891 243.55 555.27 271.202C558.69 299.203 556.097 327.89 547.475 355.191V355.205Z"
            fill="#F55A43" />
    </g>
    <defs>
        <clipPath id="clip0_5_5924">
            <rect width="627" height="603" fill="white" />
        </clipPath>
    </defs>
</svg>